<?xml version="1.0" encoding="iso-8859-1"?>
<!-- Uploaded to: SVG Repo, www.svgrepo.com, Generator: SVG Repo Mixer Tools -->
<svg height="800px" width="800px" version="1.1" id="Layer_1" xmlns="http://www.w3.org/2000/svg" xmlns:xlink="http://www.w3.org/1999/xlink" 
	 viewBox="0 0 512 512" xml:space="preserve">
<path style="fill:#FFB74D;" d="M481.029,265.544v165.648H30.981V278.594c89.924-23.928,173.808-32.225,244.214-33.071
	C398.942,244.04,481.029,265.544,481.029,265.544z"/>
<path style="fill:#FFC473;" d="M307.858,431.191H30.981V127.565c91.314-74.355,212.626-61.597,212.626-61.597l11.828,67.239
	l5.486,31.211l11.285,64.125l2.988,16.98l2.518,14.336l11.086,62.997l5.528,31.431l10.773,61.231L307.858,431.191z"/>
<g>
	<path style="fill:#8A6746;" d="M481.029,250.455v32.486c-22.141-6.113-63.185-15.517-119.338-20.24
		c-23.897-2.017-52.067-3.281-83.978-2.842c-67.333,0.94-151.291,9.498-246.732,34.701v-32.392c13.27-3.417,26.54-6.562,39.8-9.456
		v-29.978c0-7.753,6.28-14.043,14.033-14.043c7.764,0,14.043,6.29,14.043,14.043v24.231c10.877-2.09,21.734-3.992,32.58-5.726
		v-28.432c0-9.007,7.304-16.311,16.311-16.311c9.017,0,16.321,7.304,16.321,16.311v23.719c10.888-1.4,21.755-2.602,32.59-3.647
		v-29.121c0-4.504,1.829-8.579,4.775-11.536c2.957-2.947,7.043-4.775,11.546-4.775c9.007,0,16.311,7.304,16.311,16.311v26.53
		c14.378-0.899,28.693-1.484,42.914-1.745c31.775-0.585,63.07,0.418,93.571,3.041C417.416,236.025,456.516,244.134,481.029,250.455z
		"/>
	<path style="fill:#8A6746;" d="M481.029,338.948v31.796c-63.561-11.086-127.916-15.579-186.702-16.457
		c-48.724-0.752-93.623,0.993-131.114,3.521c-55.495,3.741-101.878,9.603-132.232,14.085V340.18c11.4-1.651,24.754-3.459,39.8-5.245
		v-25.213c0-7.753,6.28-14.033,14.033-14.033c7.764,0,14.043,6.28,14.043,14.033v22.1c10.313-1.055,21.191-2.079,32.58-3.041
		v-28.494c0-9.007,7.304-16.311,16.311-16.311c9.017,0,16.321,7.304,16.321,16.311v26.049c10.355-0.679,21.243-1.296,32.59-1.818
		v-29.612c0-4.504,1.829-8.579,4.775-11.536c2.957-2.947,7.043-4.775,11.546-4.775c9.007,0,16.311,7.304,16.311,16.311v28.421
		c18.944-0.502,38.87-0.7,59.507-0.47c15.914,0.178,32.256,0.616,48.901,1.358v-29.309c0-4.504,1.829-8.579,4.775-11.536
		c2.957-2.947,7.032-4.775,11.536-4.775c9.007,0,16.321,7.304,16.321,16.311v31.169c9.927,0.679,19.926,1.494,29.978,2.424v-23.113
		c0-9.007,7.304-16.311,16.321-16.311c9.007,0,16.311,7.304,16.311,16.311v26.603C448.94,333.932,465,336.231,481.029,338.948z"/>
	<path style="fill:#8A6746;" d="M260.921,164.418c-75.013,1.808-135.356,14.879-173.976,26.06
		c-24.733,7.158-43.708,14.399-55.965,19.571v-33.823c12.079-4.681,27.564-10.125,46.174-15.548
		c39.832-11.619,101.595-25.13,178.28-27.47L260.921,164.418z"/>
	<path style="fill:#8A6746;" d="M512,415.518v31.347H0v-31.347h70.781v-26.143c0-7.753,6.28-14.043,14.033-14.043
		c7.764,0,14.043,6.29,14.043,14.043v26.143h32.58v-28.233c0-9.017,7.304-16.321,16.311-16.321c9.017,0,16.321,7.304,16.321,16.321
		v28.233h32.59v-28.233c0-4.514,1.829-8.589,4.775-11.546c2.957-2.947,7.043-4.775,11.546-4.775c9.007,0,16.311,7.304,16.311,16.321
		v28.233h108.408v-23.865c0-4.504,1.829-8.589,4.775-11.536c2.957-2.957,7.032-4.786,11.536-4.786
		c9.007,0,16.321,7.314,16.321,16.321v23.865h29.978v-23.865c0-9.007,7.304-16.321,16.321-16.321
		c9.007,0,16.311,7.314,16.311,16.321v23.865H512V415.518z"/>
</g>
<g>
	<path style="fill:#664B33;" d="M277.713,259.859l-2.518-14.336l-2.988-16.98c31.775-0.585,63.07,0.418,93.571,3.041
		c51.639,4.441,90.739,12.549,115.252,18.871v32.486c-22.141-6.113-63.185-15.517-119.338-20.24
		C337.795,260.685,309.624,259.42,277.713,259.859z"/>
	<path style="fill:#664B33;" d="M370.333,294.905v31.169c9.927,0.679,19.926,1.494,29.978,2.424v-23.113
		c0-9.007,7.304-16.311,16.321-16.311c9.007,0,16.311,7.304,16.311,16.311v26.603c15.997,1.944,32.057,4.242,48.086,6.959v31.796
		c-63.561-11.086-127.916-15.579-186.702-16.457l-5.528-31.431c15.914,0.178,32.256,0.616,48.901,1.358v-29.309
		c0-4.504,1.829-8.579,4.775-11.536c2.957-2.947,7.032-4.775,11.536-4.775C363.018,278.594,370.333,285.898,370.333,294.905z"/>
	<path style="fill:#664B33;" d="M512,415.518v31.347H309.948l-2.09-15.673l0,0l-2.759-15.673H337.7v-23.865
		c0-4.504,1.829-8.589,4.775-11.536c2.957-2.957,7.032-4.786,11.536-4.786c9.007,0,16.321,7.314,16.321,16.321v23.865h29.978
		v-23.865c0-9.007,7.304-16.321,16.321-16.321c9.007,0,16.311,7.314,16.311,16.321v23.865L512,415.518L512,415.518z"/>
</g>
</svg>