<?xml version="1.0" encoding="iso-8859-1"?>
<!-- Uploaded to: SVG Repo, www.svgrepo.com, Generator: SVG Repo Mixer Tools -->
<svg version="1.1" id="Layer_1" xmlns="http://www.w3.org/2000/svg" xmlns:xlink="http://www.w3.org/1999/xlink" 
	 viewBox="0 0 511.982 511.982" xml:space="preserve">
<rect x="216.591" y="438.992" style="fill:#656D78;" width="78.33" height="23.654"/>
<g>
	<path style="fill:#FFCE54;" d="M234.661,458.644c-5.891,0-10.664-4.766-10.664-10.656v-10.672c0-5.891,4.773-10.672,10.664-10.672
		s10.664,4.781,10.664,10.672v10.672C245.325,453.879,240.552,458.644,234.661,458.644z"/>
	<path style="fill:#FFCE54;" d="M277.316,458.644c-5.883,0-10.656-4.766-10.656-10.656v-10.672c0-5.891,4.773-10.672,10.656-10.672
		c5.891,0,10.671,4.781,10.671,10.672v10.672C287.987,453.879,283.207,458.644,277.316,458.644z"/>
</g>
<g>
	<path style="fill:#434A54;" d="M213.326,447.988c-5.891,0-10.664-4.781-10.664-10.672V319.99c0-5.891,4.773-10.672,10.664-10.672
		s10.672,4.781,10.672,10.672v117.326C223.998,443.207,219.217,447.988,213.326,447.988z"/>
	<path style="fill:#434A54;" d="M298.659,447.988c-5.891,0-10.672-4.781-10.672-10.672V319.99c0-5.891,4.781-10.656,10.672-10.656
		s10.656,4.766,10.656,10.656v117.326C309.315,443.207,304.55,447.988,298.659,447.988z"/>
	<path style="fill:#434A54;" d="M479.983,202.658c-2.609,0-5.219-0.945-7.281-2.867L344.705,80.325
		c-4.296-4.016-4.53-10.765-0.515-15.07c4.015-4.312,10.765-4.539,15.077-0.523l127.997,119.466
		c4.297,4.016,4.531,10.765,0.516,15.07C485.686,201.517,482.843,202.658,479.983,202.658z"/>
</g>
<g>
	<path style="fill:#7F4545;" d="M10.667,202.665c-4.406,0-8.531-2.758-10.062-7.148c-1.953-5.562,0.977-11.648,6.539-13.593
		L433.797,32.599c5.562-1.945,11.64,0.977,13.593,6.539c1.938,5.562-0.984,11.648-6.546,13.593L14.19,202.064
		C13.026,202.47,11.839,202.665,10.667,202.665z"/>
	<path style="fill:#7F4545;" d="M64.002,309.334h-32c-5.89,0-10.664,4.766-10.664,10.656v149.324
		c0,5.891,4.773,10.672,10.664,10.672h32c5.89,0,10.664-4.781,10.664-10.672V319.99C74.665,314.099,69.892,309.334,64.002,309.334z"
		/>
	<path style="fill:#7F4545;" d="M479.983,309.334h-32c-5.89,0-10.671,4.766-10.671,10.656v149.324
		c0,5.891,4.781,10.672,10.671,10.672h32c5.891,0,10.672-4.781,10.672-10.672V319.99
		C490.655,314.099,485.874,309.334,479.983,309.334z"/>
</g>
<g>
	<path style="fill:#434A54;" d="M21.339,458.644v10.67c0,5.891,4.773,10.672,10.664,10.672h32c5.89,0,10.664-4.781,10.664-10.672
		v-10.67H21.339z"/>
	<path style="fill:#434A54;" d="M437.312,458.644v10.67c0,5.891,4.781,10.672,10.671,10.672h32c5.891,0,10.672-4.781,10.672-10.672
		v-10.67H437.312z"/>
</g>
<path style="fill:#965353;" d="M501.311,181.323H10.667c-5.89,0-10.664,4.781-10.664,10.671V319.99
	c0,5.891,4.773,10.656,10.664,10.656h490.644c5.89,0,10.671-4.766,10.671-10.656V191.994
	C511.982,186.104,507.201,181.323,501.311,181.323z"/>
<rect x="42.666" y="255.992" style="fill:#E6E9ED;" width="426.64" height="32"/>
<g>
	<rect x="469.311" y="255.992" style="fill:#A85D5D;" width="42.671" height="32"/>
	<rect x="0.003" y="255.992" style="fill:#A85D5D;" width="42.663" height="32"/>
</g>
<g>
	<rect x="256.001" y="170.662" style="fill:#E6E9ED;" width="42.662" height="63.999"/>
	<rect x="213.331" y="170.662" style="fill:#E6E9ED;" width="42.671" height="63.999"/>
</g>
<g>
	<path style="fill:#434A54;" d="M426.656,277.32c5.891,0,10.656-4.766,10.656-10.664v-10.664h-21.327v10.664
		C415.985,272.554,420.766,277.32,426.656,277.32z"/>
	<path style="fill:#434A54;" d="M383.985,277.32c5.891,0,10.672-4.766,10.672-10.664v-10.664h-21.344v10.664
		C373.313,272.554,378.095,277.32,383.985,277.32z"/>
	<path style="fill:#434A54;" d="M341.315,277.32c5.89,0,10.671-4.766,10.671-10.664v-10.664h-21.327v10.664
		C330.659,272.554,335.425,277.32,341.315,277.32z"/>
	<path style="fill:#434A54;" d="M298.659,277.32c5.891,0,10.656-4.766,10.656-10.664v-10.664h-21.328v10.664
		C287.987,272.554,292.768,277.32,298.659,277.32z"/>
	<path style="fill:#434A54;" d="M255.997,277.32c5.89,0,10.663-4.766,10.663-10.664v-10.664h-21.334v10.664
		C245.325,272.554,250.106,277.32,255.997,277.32z"/>
	<path style="fill:#434A54;" d="M213.326,277.32c5.891,0,10.672-4.766,10.672-10.664v-10.664h-21.335v10.664
		C202.662,272.554,207.435,277.32,213.326,277.32z"/>
	<path style="fill:#434A54;" d="M170.663,277.32c5.891,0,10.664-4.766,10.664-10.664v-10.664h-21.328v10.664
		C159.999,272.554,164.773,277.32,170.663,277.32z"/>
	<path style="fill:#434A54;" d="M128,277.32c5.891,0,10.664-4.766,10.664-10.664v-10.664h-21.335v10.664
		C117.328,272.554,122.11,277.32,128,277.32z"/>
	<path style="fill:#434A54;" d="M85.337,277.32c5.882,0,10.664-4.766,10.664-10.664v-10.664H74.665v10.664
		C74.665,272.554,79.439,277.32,85.337,277.32z"/>
	<path style="fill:#434A54;" d="M298.659,479.986h-85.333c-5.891,0-10.664-4.781-10.664-10.672v-31.998
		c0-5.891,4.773-10.672,10.664-10.672h85.333c5.891,0,10.656,4.781,10.656,10.672v31.998
		C309.315,475.205,304.55,479.986,298.659,479.986z M223.998,458.644h63.989v-10.656h-63.989V458.644z"/>
</g>
<rect x="245.321" y="170.662" style="fill:#CCD1D9;" width="21.334" height="63.999"/>
</svg>