<?xml version="1.0" encoding="iso-8859-1"?>
<!-- Uploaded to: SVG Repo, www.svgrepo.com, Generator: SVG Repo Mixer Tools -->
<svg version="1.1" id="Layer_1" xmlns="http://www.w3.org/2000/svg" xmlns:xlink="http://www.w3.org/1999/xlink" 
	 viewBox="0 0 512.001 512.001" xml:space="preserve">
<path style="fill:#DE3205;" d="M357.553,256.001c0,99.188-40.016,186.573-69.75,237.815c-6.534,11.261-18.571,18.193-31.591,18.186
	c-13.02-0.007-25.022-6.959-31.556-18.22c-29.732-51.246-69.73-138.614-69.73-237.78c0-99.188,40.015-186.573,69.75-237.815
	C231.211,6.925,243.248-0.007,256.268,0c13.02,0.007,25.022,6.959,31.555,18.22C317.556,69.466,357.553,156.835,357.553,256.001z"/>
<path style="fill:#9D2217;" d="M287.823,18.22C281.29,6.959,269.287,0.007,256.268,0c-0.521,0-1.038,0.029-1.557,0.051v511.898
	c0.5,0.021,0.998,0.051,1.502,0.051c13.02,0.007,25.057-6.925,31.591-18.186c29.734-51.242,69.75-138.626,69.75-237.815
	C357.553,156.835,317.556,69.466,287.823,18.22z"/>
<path style="fill:#1D1D1F;" d="M254.711,136.805L254.711,136.805c25.894,0,46.886,20.992,46.886,46.886v144.617
	c0,25.894-20.992,46.886-46.886,46.886l0,0c-25.894,0-46.886-20.992-46.886-46.886V183.691
	C207.824,157.797,228.817,136.805,254.711,136.805z"/>
<path style="fill:#3E3E42;" d="M254.711,375.195L254.711,375.195c0.512,0-0.509-0.022,0-0.039V136.844
	c-0.509-0.017,0.512-0.039,0-0.039l0,0c-25.894,0-46.886,20.992-46.886,46.886v144.617
	C207.824,354.203,228.817,375.195,254.711,375.195z"/>
<rect x="238.117" y="25.873" transform="matrix(-0.7071 -0.7071 0.7071 -0.7071 253.8036 617.1365)" style="fill:#7E4F1F;" width="33.196" height="460.261"/>
<polygon style="fill:#C27526;" points="92.584,419.333 80.245,406.994 405.704,81.534 418.175,93.742 "/>
<g>
	<path style="fill:#A16125;" d="M475.392,106.094c-18.774,18.774-49.212,18.774-67.987,0c-18.774-18.774-18.774-49.212,0-67.987
		L438.39,7.122c5.504-5.504,14.428-5.504,19.933,0l48.054,48.054c5.504,5.504,5.504,14.428,0,19.933L475.392,106.094z"/>
	<path style="fill:#A16125;" d="M104.596,476.854c18.774-18.774,18.774-49.212,0-67.987c-18.774-18.775-49.212-18.774-67.987,0
		L5.624,439.854c-5.504,5.504-5.504,14.428,0,19.933l48.054,48.054c5.504,5.504,14.428,5.504,19.933,0L104.596,476.854z"/>
</g>
<g>
	<path style="fill:#5E3C16;" d="M506.377,55.175L481.56,30.358l-74.925,74.925c0.258,0.27,0.506,0.546,0.771,0.811
		c18.774,18.774,49.212,18.774,67.987,0l30.985-30.985C511.881,69.604,511.881,60.679,506.377,55.175z"/>
	<path style="fill:#5E3C16;" d="M104.596,408.867c-0.26-0.26-0.529-0.502-0.793-0.755l-74.925,74.926l24.801,24.801
		c5.504,5.504,14.428,5.505,19.933,0l30.985-30.985C123.371,458.08,123.371,427.642,104.596,408.867z"/>
</g>
</svg>