<?xml version="1.0" encoding="iso-8859-1"?>
<!-- Uploaded to: SVG Repo, www.svgrepo.com, Generator: SVG Repo Mixer Tools -->
<svg height="800px" width="800px" version="1.1" id="Layer_1" xmlns="http://www.w3.org/2000/svg" xmlns:xlink="http://www.w3.org/1999/xlink" 
	 viewBox="0 0 512.001 512.001" xml:space="preserve">
<polygon style="fill:#8ECECF;" points="201.954,100.584 176.559,310.362 190.913,423.972 319.294,423.972 333.648,310.362 
	308.253,100.584 "/>
<polygon style="fill:#4AB6BF;" points="308.253,100.584 255.103,100.584 255.103,423.972 319.294,423.972 333.648,310.362 "/>
<path style="fill:#FFCF00;" d="M243.073,288.463c0,0,12.979,22.114-17.055,51.012c-25.92,24.94-29.826,65.377,11.38,75.325
	c41.206,9.949,84.231-12.356,63.471-64.429C278.604,294.521,243.073,288.463,243.073,288.463z"/>
<path style="fill:#FFDE55;" d="M255.103,293.12c-7.204-3.831-12.03-4.657-12.03-4.657s12.979,22.114-17.055,51.012
	c-25.92,24.94-29.826,65.377,11.38,75.325c5.929,1.432,11.895,2.192,17.704,2.294V293.12H255.103z"/>
<path style="fill:#FF9700;" d="M269.129,382.586c-15.634-11.844-8.527-29.798-8.527-29.798s-25.108,13.218-24.161,32.641
	c0.617,12.654,5.681,23.08,11.222,31.18c6.236,0.7,12.388,0.666,18.227-0.105C270.687,409.9,281.702,392.111,269.129,382.586z"/>
<path style="fill:#FFA329;" d="M255.103,356.24c-7.331,5.134-19.323,15.65-18.662,29.189c0.617,12.654,5.681,23.08,11.222,31.18
	c2.499,0.28,4.983,0.437,7.44,0.482V356.24z"/>
<path style="fill:#2D2E30;" d="M309.419,119.478H203.302v-66.42C203.302,23.802,227.105,0,256.361,0
	c29.256,0,53.059,23.802,53.059,53.058v66.42H309.419z M236.424,86.356h39.872V53.058c0-10.992-8.944-19.936-19.937-19.936
	c-10.992,0-19.937,8.943-19.937,19.936v33.297H236.424z"/>
<path style="fill:#797882;" d="M256.361,86.356h-19.937V53.058c0-10.992,8.944-19.936,19.937-19.936V0
	c-29.256,0-53.059,23.802-53.059,53.058v66.42h53.059L256.361,86.356L256.361,86.356z"/>
<path style="fill:#2D2E30;" d="M405.15,336.894c6.771-39.273,0.428-80.401-17.86-115.812L322.337,95.317
	c-2.842-5.504-8.519-8.962-14.714-8.962h-52.52v33.123h42.433l60.325,116.804c14.998,29.042,20.201,62.774,14.647,94.984
	l-11.039,64.019c-1.738,10.088-10.43,17.409-20.669,17.409h-85.696v33.123h85.696c26.406,0,48.825-18.886,53.31-44.905
	L405.15,336.894z"/>
<path style="fill:#57565C;" d="M246.569,412.695h-75.371c-10.236,0-18.93-7.322-20.669-17.41l-11.038-64.018
	c-5.554-32.212-0.352-65.944,14.647-94.985l60.325-116.804h32.106V86.354h-42.192c-6.195,0-11.872,3.457-14.714,8.962
	l-64.953,125.765c-18.288,35.408-24.631,76.538-17.86,115.813l11.038,64.018c4.486,26.019,26.907,44.905,53.31,44.905h75.371
	v-33.122H246.569z"/>
<path style="fill:#3E3E42;" d="M387.29,221.082L322.337,95.317c-2.842-5.504-8.519-8.962-14.714-8.962h-53.284v33.123h43.198
	l60.325,116.803c14.998,29.042,20.2,62.775,14.647,94.985l-11.039,64.019c-1.738,10.088-10.43,17.409-20.669,17.409h-86.462v33.123
	h86.462c26.405,0,48.825-18.886,53.31-44.905l11.039-64.019C411.92,297.622,405.577,256.493,387.29,221.082z"/>
<path style="fill:#9D2217;" d="M350.751,445.555c0-18.757-15.207-33.964-33.964-33.964H195.212
	c-18.757,0-33.964,15.207-33.964,33.964v39.142h189.504v-39.142H350.751z"/>
<path style="fill:#C6C5CA;" d="M340.416,130.153H174.828c-7.021,0-12.713-5.692-12.713-12.713V99.187
	c0-7.021,5.692-12.713,12.713-12.713h165.587c7.021,0,12.713,5.692,12.713,12.713v18.254
	C353.128,124.461,347.437,130.153,340.416,130.153z"/>
<path style="fill:#DE3205;" d="M255.103,411.59h-59.892c-18.757,0-33.964,15.207-33.964,33.964v39.142h93.856L255.103,411.59
	L255.103,411.59z"/>
<path style="fill:#444444;" d="M359.052,464.524H152.947c-7.113,0-12.878,5.766-12.878,12.878v21.721
	c0,7.113,5.766,12.878,12.878,12.878h206.104c7.113,0,12.878-5.766,12.878-12.878v-21.721
	C371.93,470.29,366.164,464.524,359.052,464.524z"/>
<path style="fill:#1D1D1F;" d="M359.052,464.524H255.103V512h103.948c7.113,0,12.878-5.766,12.878-12.878v-21.721
	C371.93,470.29,366.163,464.524,359.052,464.524z"/>
</svg>