<?xml version="1.0" encoding="iso-8859-1"?>
<!-- Uploaded to: SVG Repo, www.svgrepo.com, Generator: SVG Repo Mixer Tools -->
<svg height="800px" width="800px" version="1.1" id="Layer_1" xmlns="http://www.w3.org/2000/svg" xmlns:xlink="http://www.w3.org/1999/xlink" 
	 viewBox="0 0 512 512" xml:space="preserve">
<path style="fill:#EDA637;" d="M508.224,112.966c-2.398-2.066-5.578-2.983-8.707-2.513l-124.362,18.654l-172.197-29.65
	l-139.51,27.902c-5.081,1.017-8.74,5.478-8.74,10.66v261.263c0,3.257,1.461,6.342,3.979,8.407c2.519,2.065,5.831,2.892,9.024,2.253
	l135.246-27.049l172.197,29.65l127.587-19.138c5.322-0.798,9.259-5.37,9.259-10.75v-261.45
	C512,118.039,510.621,115.032,508.224,112.966z"/>
<polygon style="fill:#F7DC4D;" points="375.155,412.543 202.957,382.893 202.957,99.457 375.155,129.107 "/>
<path style="fill:#5E3C16;" d="M423.378,244.019c-4.303,0-8.606-1.642-11.888-4.925c-6.566-6.565-6.566-17.211,0-23.777
	l38.975-38.975c6.565-6.565,17.211-6.565,23.777,0c6.566,6.565,6.566,17.211,0,23.777l-38.975,38.975
	C431.984,242.377,427.681,244.019,423.378,244.019z"/>
<path style="fill:#A16125;" d="M462.355,244.019c-4.303,0-8.606-1.642-11.888-4.925l-38.975-38.975
	c-6.566-6.565-6.566-17.211,0-23.777c6.565-6.565,17.211-6.565,23.777,0l38.975,38.975c6.566,6.565,6.566,17.211,0,23.777
	C470.96,242.377,466.658,244.019,462.355,244.019z"/>
<path style="fill:#DE3205;" d="M138.078,213.297c0-38.129-30.91-69.04-69.04-69.04C30.91,144.258,0,175.167,0,213.297
	c0,27.065,40.389,85.981,59.383,112.192c2.245,3.098,5.839,4.934,9.665,4.937c3.827,0.003,7.426-1.825,9.677-4.918
	C97.732,299.386,138.078,240.709,138.078,213.297z"/>
<path style="fill:#A81000;" d="M138.078,213.297c0-38.129-30.91-69.04-69.039-69.04l0,0v186.168c0.003,0,0.007,0,0.01,0
	c3.827,0.003,7.426-1.825,9.677-4.918C97.732,299.386,138.078,240.709,138.078,213.297z"/>
<circle style="fill:#690812;" cx="69.035" cy="213.293" r="29.221"/>
</svg>