<?xml version="1.0" encoding="iso-8859-1"?>
<!-- Uploaded to: SVG Repo, www.svgrepo.com, Generator: SVG Repo Mixer Tools -->
<svg fill="#000000" height="800px" width="800px" version="1.1" id="Capa_1" xmlns="http://www.w3.org/2000/svg" xmlns:xlink="http://www.w3.org/1999/xlink" 
	 viewBox="0 0 64 64" xml:space="preserve">
<g>
	<g id="prototype-bird-origami-product-startup_1_">
		<path d="M54.679,0.027c-0.449-0.108-0.937,0.111-1.144,0.526L39.753,28.098l-5.338,0.889l-4.955-0.825l0.949-17.105
			c0.021-0.371-0.166-0.722-0.484-0.913l-4.802-3c-0.251-0.15-0.633-0.182-0.633-0.09V7.052l-15.198,5
			c-0.438,0.146-0.818,0.573-0.779,1.033c0.039,0.46,0.338,0.833,0.794,0.904l11.123,1.715l-4.942,12.941
			c-0.06,0.156-0.085,0.325-0.063,0.491l2.997,22C18.49,51.631,18.91,52,19.41,52h4.817l1.221,4.275
			c0.054,0.185,0.158,0.351,0.304,0.478l8,7C33.94,63.918,34.175,64,34.41,64s0.47-0.083,0.658-0.248l8-7
			c0.146-0.126,0.25-0.292,0.304-0.478l3.963-13.87l7.967-12.881c0.096-0.156,0.188-0.337,0.188-0.523V1
			C55.49,0.537,55.131,0.134,54.679,0.027z M29.038,30.112l4.452,0.736V41h-9.518L29.038,30.112z M35.49,30.848l4.372-0.735
			L44.847,41H35.49V30.848z M13.65,12.641l9.074-3.025l-1.591,4.176L13.65,12.641z M20.283,50l-2.848-20.882L24.92,9.472
			l3.458,2.075l-0.955,17.206l-5.921,12.828c-0.101,0.22-0.114,0.465-0.05,0.693l-0.004,0.001L23.655,50H20.283z M41.529,55.442
			l-7.119,6.229l-7.119-6.229L23.736,43h21.348L41.529,55.442z M53.49,28.717l-6.914,11.17l-4.997-10.87L53.49,5.236V28.717z"/>
	</g>
	<g id="Layer_1_23_">
	</g>
</g>
</svg>