<?xml version="1.0" encoding="iso-8859-1"?>
<!-- Uploaded to: SVG Repo, www.svgrepo.com, Generator: SVG Repo Mixer Tools -->
<svg height="800px" width="800px" version="1.1" id="Layer_1" xmlns="http://www.w3.org/2000/svg" xmlns:xlink="http://www.w3.org/1999/xlink" 
	 viewBox="0 0 512 512" xml:space="preserve">
<path style="fill:#F0DF9E;" d="M265.835,476.758h-55.679h-8.792h-27.934h-18.953H98.785H32.178c-12.184,0-18.3-14.746-9.672-23.362
	l30.056-30.057l0.15-0.05c-26.262-28.939-42.264-67.36-42.264-109.513V198.939h22.583c15.16,0,29.378,4.095,41.587,11.228v0.013
	c24.492,14.306,40.946,40.884,40.946,71.291v14.934c0,45.493,36.877,82.369,82.369,82.369H299.32h34.076h3.203h66.971
	c27.055,0,51.547,10.965,69.282,28.7c17.734,17.736,28.699,42.228,28.699,69.283h-68.667h-55.679h-55.679H265.835z"/>
<path style="fill:#A3875E;" d="M299.32,378.775H197.935c-45.493,0-82.369-36.877-82.369-82.369v-14.934v-63.58
	c0-100.87,81.779-182.65,182.65-182.65h13.402c50.441,0,96.111,20.448,129.156,53.494c33.046,33.058,53.494,78.714,53.494,129.156
	c0,88.851-72.02,160.883-160.87,160.883H299.32V378.775z"/>
<path d="M428.393,77.055c-3.932,4.223-3.694,10.836,0.531,14.768c1.5,1.396,3.001,2.844,4.46,4.303
	c2.041,2.04,4.715,3.061,7.388,3.061s5.348-1.021,7.388-3.061c4.08-4.08,4.08-10.697,0-14.778c-1.634-1.634-3.318-3.257-5-4.823
	C438.939,72.593,432.325,72.829,428.393,77.055z"/>
<path d="M15.125,446.001c-6.932,6.921-8.99,17.242-5.244,26.296c3.747,9.057,12.499,14.91,22.297,14.91h469.373
	c5.77,0,10.449-4.678,10.449-10.449c0-28.96-11.28-56.189-31.761-76.669c-17.918-17.918-41-28.793-65.889-31.235
	c53.747-28.944,90.364-85.753,90.364-150.961c0-37.942-11.001-74.672-31.814-106.218c-3.176-4.815-9.657-6.145-14.476-2.968
	c-4.817,3.179-6.146,9.659-2.967,14.476c18.553,28.121,28.36,60.872,28.36,94.71c0,82.949-67.478,150.434-150.421,150.434h-34.075
	c-42.38,0-76.857-34.484-76.857-76.869v-49.273c0-46.015,37.436-83.451,83.451-83.451h28.197c16.94,0,32.863,6.594,44.837,18.569
	c11.975,11.972,18.569,27.897,18.569,44.837c0,34.961-28.444,63.404-63.405,63.404h-13.326c-7.254,0-14.066-2.822-19.196-7.961
	c-5.125-5.116-7.947-11.929-7.947-19.182c0-14.967,12.176-27.143,27.144-27.143h2.399c5.77,0,10.449-4.678,10.449-10.449
	s-4.679-10.449-10.449-10.449h-2.399c-26.491,0-48.042,21.551-48.042,48.041c0,12.844,5.001,24.908,14.07,33.959
	c9.064,9.08,21.13,14.082,33.973,14.082h13.326c46.484,0,84.303-37.818,84.303-84.302c0-22.522-8.769-43.693-24.689-59.614
	c-15.921-15.921-37.093-24.689-59.615-24.689h-28.196c-57.537,0-104.349,46.81-104.349,104.349v49.273
	c0,31.156,14.647,58.953,37.416,76.869h-41.047c-39.657,0-71.92-32.263-71.92-71.92v-14.934v-63.581
	c0-94.952,77.249-172.2,172.2-172.2h13.402c33.005,0,65.069,9.36,92.728,27.068c4.858,3.111,11.321,1.694,14.433-3.166
	c3.112-4.86,1.694-11.323-3.166-14.434c-31.027-19.866-66.989-30.367-103.996-30.367h-13.403
	c-106.474,0.001-193.097,86.624-193.097,193.099v4.926c-5.693-7.014-12.428-13.234-20.049-18.392v-94.237
	c0-5.771-4.679-10.449-10.449-10.449c-5.77,0-10.449,4.678-10.449,10.449v83.669c-9.947-3.529-20.481-5.369-31.138-5.369H20.898
	v-78.302c0-5.771-4.679-10.449-10.449-10.449S0,104.417,0,110.188v88.75v114.837c0,39.829,13.584,78.124,38.443,108.906
	L15.125,446.001z M20.898,313.777V209.388h12.133c12.637,0,25.051,3.31,35.932,9.579c0.126,0.082,0.255,0.16,0.385,0.236
	c22.063,12.887,35.768,36.747,35.768,62.269v14.934c0,51.18,41.638,92.818,92.818,92.818h205.635
	c23.379,0,45.359,9.105,61.892,25.64c14.046,14.046,22.731,32.02,25.026,51.443h-47.155v-6.947c0-5.771-4.679-10.449-10.449-10.449
	s-10.449,4.678-10.449,10.449v6.947h-34.781v-6.947c0-5.771-4.679-10.449-10.449-10.449s-10.449,4.678-10.449,10.449v6.947h-34.78
	v-6.947c0-5.771-4.679-10.449-10.449-10.449c-5.77,0-10.449,4.678-10.449,10.449v6.947h-34.794v-6.947
	c0-5.771-4.679-10.449-10.449-10.449s-10.449,4.678-10.449,10.449v6.947h-34.782v-6.947c0-5.771-4.679-10.449-10.449-10.449
	s-10.449,4.678-10.449,10.449v6.947h-34.78v-6.947c0-5.771-4.679-10.449-10.449-10.449s-10.449,4.678-10.449,10.449v6.947h-34.793
	v-6.947c0-5.771-4.679-10.449-10.449-10.449c-5.77,0-10.449,4.678-10.449,10.449v6.947H32.178c-1.785,0-2.609-1.089-2.986-2.002
	c-0.376-0.91-0.561-2.259,0.705-3.523l29.294-29.294c1.755-1.387,3.045-3.32,3.631-5.544c0.898-3.419,0.007-7.06-2.369-9.679
	C34.945,388.161,20.898,351.763,20.898,313.777z"/>
<path d="M69.883,272.002v-10.048c0-5.771-4.679-10.449-10.449-10.449c-5.77,0-10.449,4.678-10.449,10.449v10.048
	c0,5.771,4.679,10.449,10.449,10.449C65.204,282.451,69.883,277.773,69.883,272.002z"/>
</svg>