<?xml version="1.0" encoding="iso-8859-1"?>
<!-- Uploaded to: SVG Repo, www.svgrepo.com, Generator: SVG Repo Mixer Tools -->
<svg height="800px" width="800px" version="1.1" id="Layer_1" xmlns="http://www.w3.org/2000/svg" xmlns:xlink="http://www.w3.org/1999/xlink" 
	 viewBox="0 0 512 512" xml:space="preserve">
<path style="fill:#DE3205;" d="M421.598,493.085c8.324-48.885,13.115-106.073,13.115-167.202C434.711,145.903,393.229,0,342.059,0
	s-92.653,145.903-92.653,325.883c0,61.129,4.789,118.317,13.115,167.202H421.598z"/>
<path style="fill:#F7DC4D;" d="M283.219,493.085c8.324-48.885,13.115-106.073,13.115-167.202C296.334,145.903,254.852,0,203.68,0
	s-92.653,145.903-92.653,325.883c0,61.129,4.789,118.317,13.115,167.202H283.219z"/>
<path style="fill:#9D2217;" d="M342.059,0v493.085h79.539c8.324-48.885,13.115-106.073,13.115-167.202
	C434.711,145.903,393.229,0,342.059,0z"/>
<path style="fill:#EDA637;" d="M203.68,0v493.085h79.539c8.324-48.885,13.115-106.073,13.115-167.202
	C296.334,145.903,254.852,0,203.68,0z"/>
<path style="fill:#896646;" d="M50.406,512c-3.553,0-6.652-2.415-7.518-5.861c-0.866-3.446,0.72-7.04,3.852-8.72l57.863-31.064
	c19.03-10.217,40.818-14.112,62.209-11.123l295.856,41.338c4.033,0.563,6.943,4.153,6.661,8.215
	c-0.282,4.062-3.661,7.214-7.733,7.214H50.406V512z"/>
</svg>