<?xml version="1.0" encoding="UTF-8" standalone="no"?>
<!-- Created with Inkscape (http://www.inkscape.org/) -->

<svg
   width="160.79477mm"
   height="119.66649mm"
   viewBox="0 0 160.79477 119.66649"
   version="1.1"
   id="svg1"
   sodipodi:docname="logo.svg"
   inkscape:version="1.4.2 (ebf0e940, 2025-05-08)"
   inkscape:export-filename="logo.svg"
   inkscape:export-xdpi="86.570023"
   inkscape:export-ydpi="86.570023"
   xmlns:inkscape="http://www.inkscape.org/namespaces/inkscape"
   xmlns:sodipodi="http://sodipodi.sourceforge.net/DTD/sodipodi-0.dtd"
   xmlns="http://www.w3.org/2000/svg"
   xmlns:svg="http://www.w3.org/2000/svg">
  <sodipodi:namedview
     id="namedview1"
     pagecolor="#ffffff"
     bordercolor="#000000"
     borderopacity="0.25"
     inkscape:showpageshadow="2"
     inkscape:pageopacity="0.0"
     inkscape:pagecheckerboard="0"
     inkscape:deskcolor="#d1d1d1"
     inkscape:document-units="mm"
     inkscape:zoom="0.310442"
     inkscape:cx="304.40469"
     inkscape:cy="542.7745"
     inkscape:window-width="1096"
     inkscape:window-height="676"
     inkscape:window-x="432"
     inkscape:window-y="1263"
     inkscape:window-maximized="0"
     inkscape:current-layer="layer1"
     showguides="false"
     inkscape:lockguides="false"
     showgrid="true">
    <inkscape:grid
       id="grid3"
       units="mm"
       originx="-30.366575"
       originy="-79.720418"
       spacingx="0.99999998"
       spacingy="1"
       empcolor="#0099e5"
       empopacity="0.30196078"
       color="#0099e5"
       opacity="0.14901961"
       empspacing="5"
       enabled="true"
       visible="true" />
    <inkscape:page
       x="0"
       y="-8.3964011e-14"
       width="160.79477"
       height="119.66648"
       id="page2"
       margin="0"
       bleed="0" />
  </sodipodi:namedview>
  <defs
     id="defs1">
    <rect
       x="66.67981"
       y="251.02988"
       width="309.86499"
       height="596.19592"
       id="rect2" />
  </defs>
  <g
     inkscape:label="Layer 1"
     inkscape:groupmode="layer"
     id="layer1"
     transform="translate(-30.366576,-79.720424)">
    <text
       xml:space="preserve"
       transform="matrix(0.8087091,0,0,0.87505187,-26.281958,-181.39831)"
       id="text2"
       style="font-style:normal;font-variant:normal;font-weight:normal;font-stretch:normal;font-size:197.1px;font-family:Baskerville;-inkscape-font-specification:'Baskerville, Normal';font-variant-ligatures:normal;font-variant-caps:normal;font-variant-numeric:normal;font-variant-east-asian:normal;text-align:start;writing-mode:lr-tb;direction:ltr;white-space:pre;shape-inside:url(#rect2);display:inline;fill:#000000"><tspan
         x="66.679688"
         y="430.36885"
         id="tspan1">N</tspan></text>
    <text
       xml:space="preserve"
       style="font-style:normal;font-variant:normal;font-weight:normal;font-stretch:normal;font-size:165.806px;font-family:Baskerville;-inkscape-font-specification:'Baskerville, Normal';font-variant-ligatures:normal;font-variant-caps:normal;font-variant-numeric:normal;font-variant-east-asian:normal;text-align:start;writing-mode:lr-tb;direction:ltr;text-anchor:start;fill:#000000;stroke-width:0.841226"
       x="106.79633"
       y="187.47301"
       id="text3"
       transform="scale(0.96134499,1.0402093)"><tspan
         sodipodi:role="line"
         id="tspan3"
         style="font-style:normal;font-variant:normal;font-weight:normal;font-stretch:normal;font-size:165.806px;font-family:Baskerville;-inkscape-font-specification:'Baskerville, Normal';font-variant-ligatures:normal;font-variant-caps:normal;font-variant-numeric:normal;font-variant-east-asian:normal;stroke-width:0.841226"
         x="106.79633"
         y="187.47301">P</tspan></text>
    <path
       style="fill:none;stroke-width:0.264583"
       d="m 123.05605,195.33031 c 0.23824,-0.0341 0.48449,-0.0186 0.72572,-0.0186 0.0617,0 0.14498,-0.0149 0.20469,0 0.0239,0.006 0.0878,0.0372 0.093,0.0372"
       id="path15" />
    <path
       style="fill:none;stroke-width:0.264583"
       d="m 122.75832,195.01397 c 0.57172,-0.002 1.14356,-0.01 1.71195,0.0558 0.2969,0.0343 0.59623,0.0474 0.8932,0.093 0.13698,0.0211 0.27207,0.0548 0.40938,0.0744 0.099,0.0142 0.19942,0.0188 0.29773,0.0372 0.13751,0.0258 0.27261,0.0657 0.40938,0.093 0.049,0.01 0.0992,0.0124 0.14886,0.0186 0.093,0.0248 0.18503,0.054 0.27912,0.0744 0.33102,0.072 -0.0517,-0.0544 0.33495,0.0744 0.36652,0.12217 0.72992,0.2625 1.07928,0.42799 0.0779,0.0369 0.14485,0.0946 0.2233,0.13026 0.0357,0.0162 0.076,0.0208 0.11165,0.0372 0.22482,0.10377 0.0369,0.0448 0.2419,0.13026 0.14609,0.0609 0.31163,0.11815 0.46521,0.14887 0.0667,0.0133 0.15614,0 0.2233,0 0.16127,0 0.32254,0 0.48381,0 0.0434,0 0.0877,0.009 0.13026,0 0.0317,-0.006 0.32941,-0.14333 0.35355,-0.16748 0.01,-0.01 0.009,-0.0274 0.0186,-0.0372 0.0175,-0.0175 0.18694,-0.11165 0.11165,-0.11165"
       id="path16" />
    <path
       style="fill:#ffffff;stroke-width:0.264583"
       d="m 123.59569,199.3869 -0.78155,-3.92633"
       id="path17" />
    <path
       style="fill:#ffffff;stroke-width:0.264583"
       d="m 121.99538,196.07464 0.33495,-0.35356"
       id="path18" />
    <path
       style="fill:none;stroke-width:0.264583"
       d="m 122.73971,194.97675 7.85266,0.85598"
       id="path19" />
    <rect
       style="fill:#ffffff;stroke-width:0.264583"
       id="rect23"
       width="8.0971518"
       height="1.0778295"
       x="122.62947"
       y="194.99191" />
    <path
       style="opacity:1;fill:none;stroke-width:23.865;stroke-dasharray:none"
       d="m 145.53888,83.788693 -6.23011,2.119088"
       id="path23" />
    <path
       style="opacity:1;fill:none;stroke-width:23.865;stroke-dasharray:none"
       d="m 144.26743,84.509183 -1.18669,6.696316 4.23818,0.08476 2.24623,-7.713475"
       id="path24" />
    <path
       style="opacity:1;fill:#ffffff;stroke-width:23.865;stroke-dasharray:none"
       d="m 145.60802,83.868479 c 0,0 -6.27523,0.0095 -6.28469,2.082278"
       id="path25" />
    <rect
       style="opacity:1;fill:#ffffff;stroke-width:23.865;stroke-dasharray:none"
       id="rect26"
       width="0.8284235"
       height="1.3359958"
       x="145.2854"
       y="83.864502" />
    <rect
       style="opacity:1;fill:#ffffff;stroke-width:23.865;stroke-dasharray:none"
       id="rect27"
       width="2.234442"
       height="1.0442953"
       x="143.24348"
       y="84.05703" />
    <rect
       style="opacity:1;fill:#ffffff;stroke-width:23.865;stroke-dasharray:none"
       id="rect28"
       width="0.31503883"
       height="0.11668105"
       x="145.02286"
       y="83.992851" />
    <rect
       style="opacity:1;fill:#ffffff;stroke-width:23.865;stroke-dasharray:none"
       id="rect29"
       width="0.1225151"
       height="0.075842679"
       x="145.20374"
       y="83.952011" />
    <rect
       style="opacity:1;fill:#ffffff;stroke-width:23.865;stroke-dasharray:none"
       id="rect30"
       width="2.7361705"
       height="0.86927378"
       x="140.99153"
       y="84.617096" />
    <rect
       style="opacity:1;fill:#ffffff;stroke-width:23.865;stroke-dasharray:none"
       id="rect31"
       width="2.3744593"
       height="0.093344837"
       x="139.34634"
       y="85.900589" />
    <rect
       style="opacity:1;fill:#ffffff;stroke-width:23.865;stroke-dasharray:none"
       id="rect32"
       width="2.0477524"
       height="0.046672419"
       x="139.45718"
       y="85.871414" />
    <rect
       style="opacity:1;fill:#ffffff;stroke-width:23.865;stroke-dasharray:none"
       id="rect33"
       width="1.7677178"
       height="0.53673279"
       x="139.54469"
       y="85.346352" />
    <rect
       style="opacity:1;fill:#ffffff;stroke-width:23.865;stroke-dasharray:none"
       id="rect34"
       width="6.3886304"
       height="2.6380911"
       x="124.08563"
       y="195.88622" />
  </g>
</svg>
